# xmcd
#
# Track frame offsets:
#	150
#	13887
#	28876
#	46040
#	64066
#	83871
#	103006
#	115366
#	130048
#	148221
#	168136
#	193221
#	206500
#
# Disc length: 3089 seconds
#
# Revision: 9
# Processed by: cddbd v1.5.1PL2 Copyright (c) Steve Scherf et al.
# Submitted via: EasyCDDAExtractor 9.0.0.1
#
DISCID=b80c0f0d
DTITLE=Dolly Parton - Just Because I'm a Woman: The Songs of Dolly Parton
DYEAR=2003
DGENRE=Country
TTITLE0=Alison Krauss - 9 To 5
TTITLE1=Melissa Etheridge - I Will Always Love You
TTITLE2=Norah Jones - The Grass Is Blue
TTITLE3=Joan Osborne - Do I Ever Cross Your Mind
TTITLE4=Shelby Lynne - The Seeker
TTITLE5=Mindy Smith - Jolene
TTITLE6=Emmylou Harris - To Daddy
TTITLE7=Shania Twain And Alison Krauss And Union Station - Coat Of Many Colors
TTITLE8=Kasey Chambers - Little Sparrow
TTITLE9=Sinead O'Connor - Dagger Through The Heart
TTITLE10=Allison Moorer - Light Of A Clear Blue Morning
TTITLE11=Me'Shell N'Degeocello - Two Door Down
TTITLE12=Dolly Parton - Just Because I'm A Woman
EXTD=
EXTT0=
EXTT1=
EXTT2=
EXTT3=
EXTT4=
EXTT5=
EXTT6=
EXTT7=
EXTT8=
EXTT9=
EXTT10=
EXTT11=
EXTT12=
PLAYORDER=
